<?xml version="1.0" encoding="UTF-8" standalone="no"?>
<!-- Created with Inkscape (http://www.inkscape.org/) -->

<svg
   xmlns:dc="http://purl.org/dc/elements/1.1/"
   xmlns:cc="http://creativecommons.org/ns#"
   xmlns:rdf="http://www.w3.org/1999/02/22-rdf-syntax-ns#"
   xmlns:svg="http://www.w3.org/2000/svg"
   xmlns="http://www.w3.org/2000/svg"
   xmlns:sodipodi="http://sodipodi.sourceforge.net/DTD/sodipodi-0.dtd"
   xmlns:inkscape="http://www.inkscape.org/namespaces/inkscape"
   width="502.19373"
   height="111.24218"
   id="svg2"
   version="1.1"
   inkscape:version="0.48.1 r9760"
   sodipodi:docname="New document 1">
  <defs
     id="defs4" />
  <sodipodi:namedview
     id="base"
     pagecolor="#ffffff"
     bordercolor="#666666"
     borderopacity="1.0"
     inkscape:pageopacity="0.0"
     inkscape:pageshadow="2"
     inkscape:zoom="0.54099513"
     inkscape:cx="621.23834"
     inkscape:cy="-107.98282"
     inkscape:document-units="px"
     inkscape:current-layer="layer1"
     showgrid="false"
     showguides="false"
     inkscape:guide-bbox="true"
     fit-margin-top="0"
     fit-margin-left="0"
     fit-margin-right="0"
     fit-margin-bottom="0"
     inkscape:window-width="1216"
     inkscape:window-height="746"
     inkscape:window-x="64"
     inkscape:window-y="24"
     inkscape:window-maximized="1">
    <sodipodi:guide
       orientation="0,1"
       position="349.32702,2.9999535"
       id="guide3828" />
    <sodipodi:guide
       orientation="0,1"
       position="425.11329,113.90663"
       id="guide3830" />
    <sodipodi:guide
       orientation="0,1"
       position="725.48568,82.483134"
       id="guide3832" />
  </sodipodi:namedview>
  <metadata
     id="metadata7">
    <rdf:RDF>
      <cc:Work
         rdf:about="">
        <dc:format>image/svg+xml</dc:format>
        <dc:type
           rdf:resource="http://purl.org/dc/dcmitype/StillImage" />
        <dc:title></dc:title>
      </cc:Work>
    </rdf:RDF>
  </metadata>
  <g
     inkscape:label="Layer 1"
     inkscape:groupmode="layer"
     id="layer1"
     transform="translate(-9.2713979,-8.8065361)">
    <g
       id="g3834">
      <g
         transform="matrix(0.60829992,0,0,0.60829992,-85.475161,-87.649036)"
         id="g3813">
        <path
           sodipodi:type="arc"
           style="fill:#ff2200;fill-opacity:1;stroke:none"
           id="path2987"
           sodipodi:cx="224.28572"
           sodipodi:cy="262.36218"
           sodipodi:rx="27.142857"
           sodipodi:ry="27.142857"
           d="m 239.45562,239.85421 c 12.43081,8.37811 15.71618,25.24706 7.33807,37.67787 -8.3781,12.43081 -25.24706,15.71618 -37.67787,7.33807 -12.43081,-8.3781 -15.71618,-25.24706 -7.33807,-37.67787 8.3748,-12.4259 25.23473,-15.71439 37.6653,-7.34653 l -15.15733,22.51643 z"
           sodipodi:start="5.3054369"
           sodipodi:end="11.588064"
           transform="translate(22.90745,-12.359416)" />
        <path
           sodipodi:end="11.588064"
           sodipodi:start="5.3054369"
           d="m 239.45562,239.85421 c 12.43081,8.37811 15.71618,25.24706 7.33807,37.67787 -8.3781,12.43081 -25.24706,15.71618 -37.67787,7.33807 -12.43081,-8.3781 -15.71618,-25.24706 -7.33807,-37.67787 8.3748,-12.4259 25.23473,-15.71439 37.6653,-7.34653 l -15.15733,22.51643 z"
           sodipodi:ry="27.142857"
           sodipodi:rx="27.142857"
           sodipodi:cy="262.36218"
           sodipodi:cx="224.28572"
           id="path2993"
           style="fill:#057d9f;fill-opacity:1;stroke:none"
           sodipodi:type="arc"
           transform="translate(87.198681,-12.359416)" />
        <path
           sodipodi:end="11.588064"
           sodipodi:start="5.3054369"
           d="m 239.45562,239.85421 c 12.43081,8.37811 15.71618,25.24706 7.33807,37.67787 -8.3781,12.43081 -25.24706,15.71618 -37.67787,7.33807 -12.43081,-8.3781 -15.71618,-25.24706 -7.33807,-37.67787 8.3748,-12.4259 25.23473,-15.71439 37.6653,-7.34653 l -15.15733,22.51643 z"
           sodipodi:ry="27.142857"
           sodipodi:rx="27.142857"
           sodipodi:cy="262.36218"
           sodipodi:cx="224.28572"
           id="path2997"
           style="fill:#8bea00;fill-opacity:1;stroke:none"
           sodipodi:type="arc"
           transform="translate(-41.383781,-12.359416)" />
        <path
           sodipodi:end="11.588064"
           sodipodi:start="5.3054369"
           d="m 239.45562,239.85421 c 12.43081,8.37811 15.71618,25.24706 7.33807,37.67787 -8.3781,12.43081 -25.24706,15.71618 -37.67787,7.33807 -12.43081,-8.3781 -15.71618,-25.24706 -7.33807,-37.67787 8.3748,-12.4259 25.23473,-15.71439 37.6653,-7.34653 l -15.15733,22.51643 z"
           sodipodi:ry="27.142857"
           sodipodi:rx="27.142857"
           sodipodi:cy="262.36218"
           sodipodi:cx="224.28572"
           id="path2989"
           style="fill:#057d9f;fill-opacity:1;stroke:none"
           sodipodi:type="arc"
           transform="translate(-41.383782,-76.65075)" />
        <path
           sodipodi:type="arc"
           style="fill:#8bea00;fill-opacity:1;stroke:none"
           id="path2991"
           sodipodi:cx="224.28572"
           sodipodi:cy="262.36218"
           sodipodi:rx="27.142857"
           sodipodi:ry="27.142857"
           d="m 239.45562,239.85421 c 12.43081,8.37811 15.71618,25.24706 7.33807,37.67787 -8.3781,12.43081 -25.24706,15.71618 -37.67787,7.33807 -12.43081,-8.3781 -15.71618,-25.24706 -7.33807,-37.67787 8.3748,-12.4259 25.23473,-15.71439 37.6653,-7.34653 l -15.15733,22.51643 z"
           sodipodi:start="5.3054369"
           sodipodi:end="11.588064"
           transform="translate(87.198681,-76.65075)" />
        <path
           sodipodi:type="arc"
           style="fill:#057d9f;fill-opacity:1;stroke:none"
           id="path2999"
           sodipodi:cx="224.28572"
           sodipodi:cy="262.36218"
           sodipodi:rx="27.142857"
           sodipodi:ry="27.142857"
           d="m 239.45562,239.85421 c 12.43081,8.37811 15.71618,25.24706 7.33807,37.67787 -8.3781,12.43081 -25.24706,15.71618 -37.67787,7.33807 -12.43081,-8.3781 -15.71618,-25.24706 -7.33807,-37.67787 8.3748,-12.4259 25.23473,-15.71439 37.6653,-7.34653 l -15.15733,22.51643 z"
           sodipodi:start="5.3054369"
           sodipodi:end="11.588064"
           transform="translate(22.90745,-76.65075)" />
        <path
           sodipodi:type="arc"
           style="fill:#057d9f;fill-opacity:1;stroke:none"
           id="path2995"
           sodipodi:cx="224.28572"
           sodipodi:cy="262.36218"
           sodipodi:rx="27.142857"
           sodipodi:ry="27.142857"
           d="m 239.45562,239.85421 c 12.43081,8.37811 15.71618,25.24706 7.33807,37.67787 -8.3781,12.43081 -25.24706,15.71618 -37.67787,7.33807 -12.43081,-8.3781 -15.71618,-25.24706 -7.33807,-37.67787 8.3748,-12.4259 25.23473,-15.71439 37.6653,-7.34653 l -15.15733,22.51643 z"
           sodipodi:start="5.3054369"
           sodipodi:end="11.588064"
           transform="translate(-41.38378,51.931918)" />
        <path
           sodipodi:end="11.588064"
           sodipodi:start="5.3054369"
           d="m 239.45562,239.85421 c 12.43081,8.37811 15.71618,25.24706 7.33807,37.67787 -8.3781,12.43081 -25.24706,15.71618 -37.67787,7.33807 -12.43081,-8.3781 -15.71618,-25.24706 -7.33807,-37.67787 8.3748,-12.4259 25.23473,-15.71439 37.6653,-7.34653 l -15.15733,22.51643 z"
           sodipodi:ry="27.142857"
           sodipodi:rx="27.142857"
           sodipodi:cy="262.36218"
           sodipodi:cx="224.28572"
           id="path3001"
           style="fill:#333333;fill-opacity:1;stroke:none"
           sodipodi:type="arc"
           transform="translate(22.90745,51.931918)" />
        <path
           sodipodi:type="arc"
           style="fill:#333333;fill-opacity:1;stroke:none"
           id="path3003"
           sodipodi:cx="224.28572"
           sodipodi:cy="262.36218"
           sodipodi:rx="27.142857"
           sodipodi:ry="27.142857"
           d="m 239.45562,239.85421 c 12.43081,8.37811 15.71618,25.24706 7.33807,37.67787 -8.3781,12.43081 -25.24706,15.71618 -37.67787,7.33807 -12.43081,-8.3781 -15.71618,-25.24706 -7.33807,-37.67787 8.3748,-12.4259 25.23473,-15.71439 37.6653,-7.34653 l -15.15733,22.51643 z"
           sodipodi:start="5.3054369"
           sodipodi:end="11.588064"
           transform="translate(87.19868,51.931918)" />
      </g>
      <text
         sodipodi:linespacing="100%"
         id="text3824"
         y="117.28892"
         x="138.43195"
         style="font-size:124.72637177px;font-style:normal;font-variant:normal;font-weight:900;font-stretch:normal;text-align:start;line-height:100%;letter-spacing:0px;word-spacing:0px;writing-mode:lr-tb;text-anchor:start;fill:#000000;fill-opacity:1;stroke:none;font-family:Delicious Heavy;-inkscape-font-specification:'Delicious Heavy, Heavy'"
         xml:space="preserve"><tspan
           y="117.28892"
           x="138.43195"
           id="tspan3826"
           sodipodi:role="line">METSlib</tspan></text>
    </g>
  </g>
</svg>
